
<svg aria-hidden="true" style="position: absolute; width: 0; height: 0; overflow: hidden;" version="1.1" xmlns="http://www.w3.org/2000/svg" xmlns:xlink="http://www.w3.org/1999/xlink">
<defs>
<symbol id="icon-club" viewBox="0 0 32 32">
<path d="M17.067 18.667c0 4.124-3.343 7.467-7.467 7.467s-7.467-3.343-7.467-7.467c0-4.124 3.343-7.467 7.467-7.467s7.467 3.343 7.467 7.467z"></path>
<path d="M23.467 8c0 4.124-3.343 7.467-7.467 7.467s-7.467-3.343-7.467-7.467c0-4.124 3.343-7.467 7.467-7.467s7.467 3.343 7.467 7.467z"></path>
<path d="M29.867 18.667c0 4.124-3.343 7.467-7.467 7.467s-7.467-3.343-7.467-7.467c0-4.124 3.343-7.467 7.467-7.467s7.467 3.343 7.467 7.467z"></path>
<path d="M16 16q0 10.667-5.333 16h10.667q-5.333-5.333-5.333-16z"></path>
</symbol>
<symbol id="icon-diamond" viewBox="0 0 32 32">
<path fill="#f00" style="fill: var(--color1, #f00)" d="M16 0.915l15.085 15.085-15.085 15.085-15.085-15.085 15.085-15.085z"></path>
</symbol>
<symbol id="icon-heart" viewBox="0 0 32 32">
<path fill="#f00" style="fill: var(--color1, #f00)" d="M16 4.686l13.199 13.199-13.199 13.199-13.199-13.199 13.199-13.199z"></path>
<path fill="#f00" style="fill: var(--color1, #f00)" d="M16 17.886c-3.645 3.645-9.554 3.645-13.199 0s-3.645-9.554 0-13.199c3.645-3.645 9.554-3.645 13.199 0s3.645 9.554 0 13.199z"></path>
<path fill="#f00" style="fill: var(--color1, #f00)" d="M29.199 17.886c-3.645 3.645-9.554 3.645-13.199 0s-3.645-9.554 0-13.199c3.645-3.645 9.554-3.645 13.199 0s3.645 9.554 0 13.199z"></path>
</symbol>
<symbol id="icon-spade" viewBox="0 0 32 32">
<path d="M16 23.542l-11.314-11.314 11.314-11.314 11.314 11.314-11.314 11.314z"></path>
<path d="M16 12.229c3.124-3.124 8.19-3.124 11.314 0s3.124 8.19 0 11.314c-3.124 3.124-8.19 3.124-11.314 0s-3.124-8.19 0-11.314z"></path>
<path d="M4.686 12.229c3.124-3.124 8.19-3.124 11.314 0s3.124 8.19 0 11.314c-3.124 3.124-8.19 3.124-11.314 0s-3.124-8.19 0-11.314z"></path>
<path d="M16 16q0 10.667-5.333 16h10.667q-5.333-5.333-5.333-16z"></path>
</symbol>
</defs>
</svg>


